# xmcd
#
# Track frame offsets: 
#        150
#        13252
#        28382
#        47070
#        60982
#        82055
#        94675
#        114057
#        143935
#        165652
#        184180
#        199625
#        216525
#        233925
#        250609
#        266165
#
# Disc length: 3962 seconds
#
# Revision: 0
# Processed by: cddbd v1.5.2PL0 Copyright (c) Steve Scherf et al.
# Submitted via: ExactAudioCopy v0.99pb3
#
DISCID=e30f7810
DTITLE=Brint Anderson - I Knew This Would Happen
DYEAR=1997
DGENRE=Blues
TTITLE0=Blue Feelin'
TTITLE1=On My Own
TTITLE2=Mississippi Music
TTITLE3=The Blues Is Everywhere
TTITLE4=Cold Cold Cold
TTITLE5=Slidell
TTITLE6=Pack It Up
TTITLE7=The Blues Has Got Me
TTITLE8=Breaux Bridge
TTITLE9=You Shoulda' Seen This Place
TTITLE10=I'm Curious
TTITLE11=I Knew This Would Happen
TTITLE12=Out Da' Box
TTITLE13=Queen Inebriation
TTITLE14=How Ya' Like Me Now?
TTITLE15=On The Neutral Ground
EXTD=
EXTT0=
EXTT1=
EXTT2=
EXTT3=
EXTT4=
EXTT5=
EXTT6=
EXTT7=
EXTT8=
EXTT9=
EXTT10=
EXTT11=
EXTT12=
EXTT13=
EXTT14=
EXTT15=
PLAYORDER=
